<svg width="708" height="596" viewBox="0 0 708 596" fill="none" xmlns="http://www.w3.org/2000/svg">
<path opacity="0.1" fill-rule="evenodd" clip-rule="evenodd" d="M365.99 9.83654C419.869 16.5215 466.083 41.0284 515.719 63.0408C581.667 92.2871 678.675 91.7563 703.52 159.524C728.164 226.742 644.127 284.426 621.826 352.458C599.627 420.183 626.498 507.537 573.745 555.426C520.647 603.627 435.427 602.541 365.99 584.702C304.528 568.911 279.191 495.993 223.555 465.457C153.979 427.27 34.5889 460.339 5.08952 386.619C-23.6935 314.69 77.4613 256.033 112.004 186.688C139.52 131.449 135.986 57.4599 186.614 22.2074C237.045 -12.9075 305.02 2.27171 365.99 9.83654Z" fill="#DD9BD0"/>
</svg>
