<svg width="388" height="388" viewBox="0 0 388 388" fill="none" xmlns="http://www.w3.org/2000/svg">
<circle opacity="0.8" cx="194" cy="194" r="194" fill="#34A23F"/>
<g filter="url(#filter0_i_301_105)">
<circle cx="194" cy="194" r="172" fill="#5ECD4C"/>
</g>
<g filter="url(#filter1_i_301_105)">
<circle cx="194" cy="194" r="148" fill="#46B534"/>
</g>
<path fill-rule="evenodd" clip-rule="evenodd" d="M181.237 243.779C181.038 244.002 180.833 244.221 180.619 244.435C174.761 250.292 165.263 250.292 159.406 244.435L118.393 203.422C112.536 197.565 112.536 188.067 118.393 182.209C124.251 176.351 133.749 176.351 139.607 182.209L169.286 211.889C169.677 212.279 170.31 212.279 170.701 211.889L249.196 133.393C255.054 127.536 264.551 127.536 270.409 133.393C276.267 139.251 276.267 148.749 270.409 154.607L181.237 243.779Z" fill="#F4D7F1"/>
<defs>
<filter id="filter0_i_301_105" x="22" y="22" width="344" height="346" filterUnits="userSpaceOnUse" color-interpolation-filters="sRGB">
<feFlood flood-opacity="0" result="BackgroundImageFix"/>
<feBlend mode="normal" in="SourceGraphic" in2="BackgroundImageFix" result="shape"/>
<feColorMatrix in="SourceAlpha" type="matrix" values="0 0 0 0 0 0 0 0 0 0 0 0 0 0 0 0 0 0 127 0" result="hardAlpha"/>
<feOffset dy="2"/>
<feGaussianBlur stdDeviation="10"/>
<feComposite in2="hardAlpha" operator="arithmetic" k2="-1" k3="1"/>
<feColorMatrix type="matrix" values="0 0 0 0 0 0 0 0 0 0 0 0 0 0 0 0 0 0 0.05 0"/>
<feBlend mode="normal" in2="shape" result="effect1_innerShadow_301_105"/>
</filter>
<filter id="filter1_i_301_105" x="46" y="46" width="296" height="298" filterUnits="userSpaceOnUse" color-interpolation-filters="sRGB">
<feFlood flood-opacity="0" result="BackgroundImageFix"/>
<feBlend mode="normal" in="SourceGraphic" in2="BackgroundImageFix" result="shape"/>
<feColorMatrix in="SourceAlpha" type="matrix" values="0 0 0 0 0 0 0 0 0 0 0 0 0 0 0 0 0 0 127 0" result="hardAlpha"/>
<feOffset dy="2"/>
<feGaussianBlur stdDeviation="10"/>
<feComposite in2="hardAlpha" operator="arithmetic" k2="-1" k3="1"/>
<feColorMatrix type="matrix" values="0 0 0 0 0 0 0 0 0 0 0 0 0 0 0 0 0 0 0.05 0"/>
<feBlend mode="normal" in2="shape" result="effect1_innerShadow_301_105"/>
</filter>
</defs>
</svg>
